<?xml version="1.0" encoding="UTF-8" ?>
<!DOCTYPE svg PUBLIC "-//W3C//DTD SVG 1.1//EN" "http://www.w3.org/Graphics/SVG/1.1/DTD/svg11.dtd">
<svg width="539pt" height="610pt" viewBox="0 0 539 610" version="1.1" xmlns="http://www.w3.org/2000/svg">
<g id="#1860bdff">
<path fill="#1860bd" opacity="1.00" d=" M 65.94 0.00 L 67.76 0.00 C 122.86 11.52 176.70 28.40 229.68 47.30 C 244.25 52.35 258.53 58.21 272.50 64.73 C 298.30 77.09 323.15 93.18 340.77 116.12 C 352.52 131.35 360.72 149.16 365.47 167.77 C 371.66 191.31 373.04 215.79 373.10 240.03 C 372.55 268.12 368.21 297.49 352.46 321.40 C 342.20 337.28 325.82 349.42 307.10 353.03 C 282.57 358.13 257.34 350.72 235.48 339.67 C 235.50 275.79 235.50 211.91 235.49 148.02 C 235.41 137.25 235.14 126.11 231.02 115.99 C 228.13 108.85 222.23 102.95 214.89 100.46 C 211.02 99.07 205.86 97.09 202.42 100.43 C 198.84 104.31 198.62 110.01 198.16 115.00 C 197.58 126.30 197.96 137.63 197.85 148.95 C 197.83 302.29 197.88 455.64 197.82 608.98 C 153.84 595.31 109.89 581.54 65.95 567.73 C 65.93 378.48 65.95 189.24 65.94 0.00 Z" />
<path fill="#1860bd" opacity="1.00" d=" M 1.05 359.42 C 15.80 354.37 30.31 348.56 45.19 343.91 C 45.23 368.03 45.19 392.15 45.21 416.27 C 30.56 421.85 15.71 426.90 1.03 432.40 C 0.99 408.07 0.96 383.74 1.05 359.42 Z" />
<path fill="#1860bd" opacity="1.00" d=" M 297.94 378.28 C 315.58 376.49 333.28 374.87 351.03 375.12 C 399.74 375.56 448.20 385.62 493.45 403.51 C 507.61 409.53 522.01 417.13 531.30 429.81 C 537.70 438.41 539.19 450.42 534.42 460.12 C 532.17 465.87 527.19 469.77 522.70 473.72 C 509.59 485.12 494.12 493.54 478.02 499.91 C 392.14 532.95 306.34 566.21 220.42 599.15 C 220.39 574.27 220.41 549.39 220.41 524.51 C 279.08 501.88 337.75 479.22 396.41 456.57 C 404.86 453.32 413.65 450.47 421.01 445.04 C 424.11 442.75 427.24 439.96 428.30 436.11 C 429.03 433.00 427.26 429.91 424.76 428.18 C 419.06 423.97 411.80 423.22 405.03 422.04 C 381.00 418.77 356.15 422.37 333.80 431.69 C 295.98 446.20 258.22 460.85 220.39 475.33 C 220.43 449.79 220.38 424.24 220.42 398.69 C 245.52 389.46 271.26 381.30 297.94 378.28 Z" />
<path fill="#1860bd" opacity="1.00" d=" M 33.60 469.45 C 37.46 468.23 41.19 466.57 45.20 465.89 C 45.22 487.98 45.20 510.08 45.20 532.18 C 42.47 533.02 39.73 533.84 36.90 534.26 C 24.98 536.05 13.05 538.04 1.01 538.82 C 1.03 519.33 0.93 499.85 1.06 480.36 C 11.92 476.75 22.75 473.07 33.60 469.45 Z" />
</g>
</svg>
